<svg id="visual" viewBox="0 0 900 600" width="900" height="600" xmlns="http://www.w3.org/2000/svg" xmlns:xlink="http://www.w3.org/1999/xlink" version="1.1"><rect x="0" y="0" width="900" height="600" fill="#002233"></rect><path d="M0 482L21.5 470.2C43 458.3 86 434.7 128.8 422.8C171.7 411 214.3 411 257.2 416.8C300 422.7 343 434.3 385.8 437.2C428.7 440 471.3 434 514.2 429.5C557 425 600 422 642.8 432.8C685.7 443.7 728.3 468.3 771.2 471.3C814 474.3 857 455.7 878.5 446.3L900 437L900 601L878.5 601C857 601 814 601 771.2 601C728.3 601 685.7 601 642.8 601C600 601 557 601 514.2 601C471.3 601 428.7 601 385.8 601C343 601 300 601 257.2 601C214.3 601 171.7 601 128.8 601C86 601 43 601 21.5 601L0 601Z" fill="#0066FF" stroke-linecap="round" stroke-linejoin="miter"></path></svg>